<?xml version="1.0" encoding="UTF-8" standalone="no"?>
<svg xmlns="http://www.w3.org/2000/svg" width="150" height="34" viewBox="0 0 150 34">
  <g fill="none">
    <path fill="#635BFF" d="M17,0 C7.6,0 0,7.6 0,17 C0,26.4 7.6,34 17,34 C26.4,34 34,26.4 34,17 C34,7.6 26.4,0 17,0 Z M17,27 C11.5,27 7,22.5 7,17 C7,11.5 11.5,7 17,7 C22.5,7 27,11.5 27,17 C27,22.5 22.5,27 17,27 Z"/>
    <path fill="#635BFF" d="M56.5,8.4 L52.7,8.4 L52.7,18.9 C52.7,22.9 50.3,23.9 48.1,23.9 C45.8,23.9 44.5,22.5 44.5,19.9 L44.5,8.4 L40.7,8.4 L40.7,20.8 C40.7,25.6 43.7,27.4 47.5,27.4 C50.5,27.4 52.3,26 53.2,24.5 L53.4,24.5 L53.4,27 L56.9,27 C56.8,26.1 56.7,24.8 56.7,23.4 L56.7,8.4 L56.5,8.4 Z"/>
    <path fill="#635BFF" d="M67.9,13.8 C64.9,13.8 63.8,15.2 63.5,16.4 L63.3,16.4 L63.3,14.1 L59.8,14.1 C59.9,15.3 60,16.9 60,18.9 L60,33.1 L63.8,33.1 L63.8,26.7 L64,26.7 C64.6,27.7 65.8,28.9 68.3,28.9 C72.1,28.9 75.2,25.8 75.2,21.2 C75.2,16.6 72,13.8 67.9,13.8 Z M66.8,25.5 C64.8,25.5 63.5,24 63.5,21.1 C63.5,18.2 64.9,16.7 66.8,16.7 C68.9,16.7 70,18.3 70,21.1 C70,24 68.8,25.5 66.8,25.5 Z"/>
    <path fill="#635BFF" d="M87.9,23.4 C87.9,20.5 86.1,19 82.9,18.3 C80.4,17.8 79.7,17.5 79.7,16.7 C79.7,15.9 80.4,15.3 81.7,15.3 C83.2,15.3 84.6,15.7 85.9,16.4 L86.9,13.7 C85.6,13 83.9,12.6 82,12.6 C78.4,12.6 76.1,14.6 76.1,17.1 C76.1,19.7 77.8,21.4 80.9,22 C83.5,22.5 84.2,22.9 84.2,23.9 C84.2,24.9 83.4,25.5 81.7,25.5 C80,25.5 78.2,24.9 76.8,24 L75.8,26.7 C77.3,27.6 79.4,28.2 81.7,28.2 C85.7,28.2 87.9,26.3 87.9,23.4 Z"/>
    <path fill="#635BFF" d="M96.9,8.4 L93.1,8.4 L93.1,14.1 L89.9,14.1 L89.9,17.2 L93.1,17.2 L93.1,22.7 C93.1,25.8 94.8,27.5 97.9,27.5 C99.3,27.5 100.7,27.2 101.5,26.7 L101.5,23.7 C100.8,24 99.8,24.2 99.1,24.2 C97.6,24.2 96.9,23.3 96.9,21.9 L96.9,17.2 L101.8,17.2 L101.8,14.1 L96.9,14.1 L96.9,8.4 Z"/>
    <path fill="#635BFF" d="M118.4,13.8 C116.6,13.8 115.1,14.8 114.3,16.3 L114.1,16.3 C113.4,14.7 112,13.8 109.9,13.8 C108.2,13.8 106.8,14.6 106,15.9 L105.8,15.9 L105.8,14.1 L102.3,14.1 C102.4,15.3 102.5,16.7 102.5,18.5 L102.5,27 L106.3,27 L106.3,20.8 C106.3,17.9 107.4,16.8 109.1,16.8 C110.7,16.8 111.4,17.9 111.4,20.5 L111.4,27 L115.2,27 L115.2,20.8 C115.2,17.9 116.3,16.8 118,16.8 C119.6,16.8 120.3,17.9 120.3,20.5 L120.3,27 L124.1,27 L124.1,19.6 C124.1,15.9 122.1,13.8 118.4,13.8 Z"/>
    <path fill="#635BFF" d="M133.7,13.8 C129.2,13.8 126,17.1 126,21.4 C126,25.7 129.2,29 133.7,29 C138.2,29 141.4,25.8 141.4,21.4 C141.4,17 138.2,13.8 133.7,13.8 Z M133.7,26 C131.4,26 129.9,24.1 129.9,21.4 C129.9,18.7 131.4,16.7 133.7,16.7 C136,16.7 137.5,18.6 137.5,21.4 C137.5,24.2 136,26 133.7,26 Z"/>
    <path fill="#635BFF" d="M150,14.1 L146.5,14.1 L146.5,12.3 C146.5,11 147,10.2 148.6,10.2 C149.3,10.2 150,10.3 150.5,10.5 L150.5,7.5 C149.8,7.3 148.9,7.1 147.9,7.1 C144.9,7.1 142.7,9 142.7,12.2 L142.7,14.1 L140.5,14.1 L140.5,17.2 L142.7,17.2 L142.7,27 L146.5,27 L146.5,17.2 L150,17.2 L150,14.1 Z"/>
  </g>
</svg>
