<?xml version="1.0" encoding="UTF-8" standalone="no"?>
<svg width="124" height="124" viewBox="0 0 124 124" xmlns="http://www.w3.org/2000/svg">
  <g>
    <path d="M26.4,76.4c0,7.3-5.9,13.2-13.2,13.2S0,83.7,0,76.4c0-7.3,5.9-13.2,13.2-13.2h13.2V76.4z" fill="#E01E5A"></path>
    <path d="M33,76.4c0-7.3,5.9-13.2,13.2-13.2s13.2,5.9,13.2,13.2v33c0,7.3-5.9,13.2-13.2,13.2S33,116.7,33,109.5 V76.4z" fill="#E01E5A"></path>
    <path d="M46.2,26.4c-7.3,0-13.2-5.9-13.2-13.2S38.9,0,46.2,0s13.2,5.9,13.2,13.2v13.2H46.2z" fill="#36C5F0"></path>
    <path d="M46.2,33c7.3,0,13.2,5.9,13.2,13.2s-5.9,13.2-13.2,13.2H13.2C5.9,59.5,0,53.6,0,46.2S5.9,33,13.2,33H46.2z" fill="#36C5F0"></path>
    <path d="M96.3,46.2c0-7.3,5.9-13.2,13.2-13.2s13.2,5.9,13.2,13.2s-5.9,13.2-13.2,13.2H96.3V46.2z" fill="#2EB67D"></path>
    <path d="M89.7,46.2c0,7.3-5.9,13.2-13.2,13.2s-13.2-5.9-13.2-13.2V13.2C63.2,5.9,69.1,0,76.4,0s13.2,5.9,13.2,13.2V46.2z" fill="#2EB67D"></path>
    <path d="M76.4,96.3c7.3,0,13.2,5.9,13.2,13.2s-5.9,13.2-13.2,13.2s-13.2-5.9-13.2-13.2V96.3H76.4z" fill="#ECB22E"></path>
    <path d="M76.4,89.7c-7.3,0-13.2-5.9-13.2-13.2s5.9-13.2,13.2-13.2h33c7.3,0,13.2,5.9,13.2,13.2s-5.9,13.2-13.2,13.2H76.4z" fill="#ECB22E"></path>
  </g>
</svg>
