<?xml version="1.0" encoding="UTF-8" standalone="no"?>
<svg width="38" height="57" viewBox="0 0 38 57" xmlns="http://www.w3.org/2000/svg">
  <g transform="translate(-231 -2)">
    <path d="M250,2 C241.164,2 234,9.164 234,18 C234,26.836 241.164,34 250,34 L250,2 Z" fill="#1ABCFE"/>
    <path d="M250,34 C258.836,34 266,41.164 266,50 C266,58.836 258.836,66 250,66 L250,34 Z" fill="#0ACF83"/>
    <path d="M231,50 C231,58.836 238.164,66 247,66 L247,34 C238.164,34 231,41.164 231,50 Z" fill="#FF7262"/>
    <path d="M269,18 C269,9.164 261.836,2 253,2 L253,34 C261.836,34 269,26.836 269,18 Z" fill="#F24E1E"/>
    <path d="M231,18 C231,26.836 238.164,34 247,34 C255.836,34 263,26.836 263,18 C263,9.164 255.836,2 247,2 C238.164,2 231,9.164 231,18 Z" fill="#A259FF"/>
  </g>
</svg>
