<svg width="100" height="100" viewBox="0 0 100 100" fill="none" xmlns="http://www.w3.org/2000/svg">
  <rect x="2.5" y="2.5" width="95" height="95" rx="47.5" fill="#FEB81D"/>
  <rect x="2.5" y="2.5" width="95" height="95" rx="47.5" stroke="white"/>
  <path d="M55.853 58.0525C51.3935 53.338 70.536 40.0296 70.536 40.0296L65.6455 33.0196C65.6455 33.0196 58.1495 39.4317 52.6025 46.899C51.4265 48.5832 49.1181 47.1937 50.514 44.8051C53.955 38.9176 63.9225 29.3962 63.9225 29.3962L56.349 25.6432C56.349 25.6432 51.4145 30.5832 45.1972 42.9751C44.0603 45.2409 41.7476 44.0937 42.534 41.7585C44.5464 35.7828 51.0735 26.2828 51.0735 26.2828L43.1409 25C43.1409 25 38.862 32.6948 36.2029 42.259C35.6343 44.3036 33.1579 43.8167 33.4522 41.7855C33.9617 38.2684 37.4901 28.0944 37.4901 28.0944L30.6292 28.1236C30.6292 28.1236 24.7624 41.7314 29.0951 56.7415C31.5622 65.289 39.2839 73.75 49.3606 73.75C59.242 73.75 67.89 66.1935 70.8335 54.538L63.98 49.3777C63.98 49.3777 60.16 62.6065 55.853 58.0525Z" fill="#480F0E"/>
</svg>