<svg xmlns="http://www.w3.org/2000/svg" width="120" height="40" viewBox="0 0 120 40">
  <path fill="#FF90E8" d="M15.7 14.5c-1.3 0-2.5.5-3.4 1.4-.9.9-1.4 2.1-1.4 3.4v11.4c0 1.3.5 2.5 1.4 3.4.9.9 2.1 1.4 3.4 1.4h11.4c1.3 0 2.5-.5 3.4-1.4.9-.9 1.4-2.1 1.4-3.4V19.3c0-1.3-.5-2.5-1.4-3.4-.9-.9-2.1-1.4-3.4-1.4H15.7z"/>
  <path fill="#000000" d="M40.3 20.8c0-3.5 2.8-6.3 6.3-6.3 3.5 0 6.3 2.8 6.3 6.3 0 3.5-2.8 6.3-6.3 6.3-3.5 0-6.3-2.8-6.3-6.3zm16.5 0c0-3.5 2.8-6.3 6.3-6.3 3.5 0 6.3 2.8 6.3 6.3 0 3.5-2.8 6.3-6.3 6.3-3.5 0-6.3-2.8-6.3-6.3zm16.5 0c0-3.5 2.8-6.3 6.3-6.3 3.5 0 6.3 2.8 6.3 6.3 0 3.5-2.8 6.3-6.3 6.3-3.5 0-6.3-2.8-6.3-6.3z"/>
  <path fill="#000000" d="M87.3 14.5c-3.5 0-6.3 2.8-6.3 6.3s2.8 6.3 6.3 6.3c2.1 0 4-.1 5.4-2.1v1.6h4.2V14.9h-4.2v1.6c-1.4-1.9-3.3-2-5.4-2zm0 8.4c-1.2 0-2.1-1-2.1-2.1 0-1.2 1-2.1 2.1-2.1 1.2 0 2.1 1 2.1 2.1 0 1.2-.9 2.1-2.1 2.1z"/>
  <path fill="#000000" d="M101.5 14.9v11.6h4.2v-4.2c0-2.3 2.5-3.2 4.2-3.2V14.9c-1.6 0-3.3.7-4.2 2.1v-2.1h-4.2z"/>
</svg>
