<svg xmlns="http://www.w3.org/2000/svg" viewBox="0 0 32 32" width="32" height="32">
  <!-- Campfire flame icon -->
  <path d="M16 30 C10 30 6 26 6 20 C6 16 8 12 10 10 C8 8 7 6 8 4 C10 2 14 4 16 2 C18 4 22 2 24 4 C25 6 24 8 22 10 C24 12 26 16 26 20 C26 26 22 30 16 30 Z" fill="#ff6b35"/>
  <path d="M16 26 C12 26 10 24 10 20 C10 18 11 16 13 15 C12 14 11 13 12 12 C13 11 16 13 16 11 C16 13 19 11 20 12 C21 13 20 14 19 15 C21 16 22 18 22 20 C22 24 20 26 16 26 Z" fill="#f7931e"/>
  <circle cx="16" cy="18" r="3" fill="#ffcc02" opacity="0.6"/>
</svg>